<svg width="39" height="39" viewBox="0 0 39 39" fill="none" xmlns="http://www.w3.org/2000/svg">
<path d="M11.7 31.2C9.54525 31.2 7.8195 32.9453 7.8195 35.1C7.8195 37.2548 9.54525 39 11.7 39C13.8548 39 15.6 37.2548 15.6 35.1C15.6 32.9453 13.8548 31.2 11.7 31.2ZM0 0V3.9H3.9L10.9102 18.6908L8.27775 23.4683C7.9755 24.0338 7.8 24.6675 7.8 25.35C7.8 27.5048 9.54525 29.25 11.7 29.25H35.1V25.35H12.5288C12.2558 25.35 12.0413 25.1355 12.0413 24.8625C12.0413 24.7748 12.0608 24.6968 12.0998 24.6285L13.845 21.45H28.3725C29.835 21.45 31.1122 20.6408 31.785 19.4415L38.7563 6.786C38.9123 6.513 39 6.19125 39 5.85C39 5.33283 38.7946 4.83684 38.4289 4.47114C38.0632 4.10545 37.5672 3.9 37.05 3.9H8.21925L6.36675 0H0ZM31.2 31.2C29.0453 31.2 27.3195 32.9453 27.3195 35.1C27.3195 37.2548 29.0453 39 31.2 39C33.3548 39 35.1 37.2548 35.1 35.1C35.1 32.9453 33.3548 31.2 31.2 31.2Z" fill="white"/>
</svg>
