<svg width="39" height="39" viewBox="0 0 39 39" fill="none" xmlns="http://www.w3.org/2000/svg">
<path d="M19.5 21.45C18.8535 21.45 18.2335 21.6554 17.7764 22.0211C17.3193 22.3868 17.0625 22.8828 17.0625 23.4V29.25C17.0625 29.7672 17.3193 30.2632 17.7764 30.6289C18.2335 30.9946 18.8535 31.2 19.5 31.2C20.1465 31.2 20.7665 30.9946 21.2236 30.6289C21.6807 30.2632 21.9375 29.7672 21.9375 29.25V23.4C21.9375 22.8828 21.6807 22.3868 21.2236 22.0211C20.7665 21.6554 20.1465 21.45 19.5 21.45ZM31.6875 13.65V9.75C31.6875 7.16414 30.4035 4.68419 28.1179 2.85571C25.8323 1.02723 22.7323 0 19.5 0C16.2677 0 13.1677 1.02723 10.8821 2.85571C8.59654 4.68419 7.3125 7.16414 7.3125 9.75V13.65C5.3731 13.65 3.51314 14.2663 2.14178 15.3634C0.770422 16.4605 0 17.9485 0 19.5V33.15C0 34.7015 0.770422 36.1895 2.14178 37.2866C3.51314 38.3837 5.3731 39 7.3125 39H31.6875C33.6269 39 35.4869 38.3837 36.8582 37.2866C38.2296 36.1895 39 34.7015 39 33.15V19.5C39 17.9485 38.2296 16.4605 36.8582 15.3634C35.4869 14.2663 33.6269 13.65 31.6875 13.65ZM12.1875 9.75C12.1875 8.19848 12.9579 6.71051 14.3293 5.61343C15.7006 4.51634 17.5606 3.9 19.5 3.9C21.4394 3.9 23.2994 4.51634 24.6707 5.61343C26.0421 6.71051 26.8125 8.19848 26.8125 9.75V13.65H12.1875V9.75ZM34.125 33.15C34.125 33.6672 33.8682 34.1632 33.4111 34.5289C32.954 34.8946 32.334 35.1 31.6875 35.1H7.3125C6.66603 35.1 6.04605 34.8946 5.58893 34.5289C5.13181 34.1632 4.875 33.6672 4.875 33.15V19.5C4.875 18.9828 5.13181 18.4868 5.58893 18.1211C6.04605 17.7554 6.66603 17.55 7.3125 17.55H31.6875C32.334 17.55 32.954 17.7554 33.4111 18.1211C33.8682 18.4868 34.125 18.9828 34.125 19.5V33.15Z" fill="#910000"/>
<path d="M19.5 21.15C18.953 21.15 18.4284 21.3238 18.0416 21.6333C17.6548 21.9427 17.4375 22.3624 17.4375 22.8V27.75C17.4375 28.1876 17.6548 28.6073 18.0416 28.9167C18.4284 29.2262 18.953 29.4 19.5 29.4C20.047 29.4 20.5716 29.2262 20.9584 28.9167C21.3452 28.6073 21.5625 28.1876 21.5625 27.75V22.8C21.5625 22.3624 21.3452 21.9427 20.9584 21.6333C20.5716 21.3238 20.047 21.15 19.5 21.15ZM29.8125 14.55V11.25C29.8125 9.06196 28.726 6.96354 26.792 5.41637C24.8581 3.86919 22.235 3 19.5 3C16.765 3 14.1419 3.86919 12.208 5.41637C10.274 6.96354 9.1875 9.06196 9.1875 11.25V14.55C7.54647 14.55 5.97266 15.0715 4.81228 15.9998C3.6519 16.9281 3 18.1872 3 19.5V31.05C3 32.3628 3.6519 33.6219 4.81228 34.5502C5.97266 35.4785 7.54647 36 9.1875 36H29.8125C31.4535 36 33.0273 35.4785 34.1877 34.5502C35.3481 33.6219 36 32.3628 36 31.05V19.5C36 18.1872 35.3481 16.9281 34.1877 15.9998C33.0273 15.0715 31.4535 14.55 29.8125 14.55ZM13.3125 11.25C13.3125 9.93718 13.9644 8.67813 15.1248 7.74982C16.2852 6.82152 17.859 6.3 19.5 6.3C21.141 6.3 22.7148 6.82152 23.8752 7.74982C25.0356 8.67813 25.6875 9.93718 25.6875 11.25V14.55H13.3125V11.25ZM31.875 31.05C31.875 31.4876 31.6577 31.9073 31.2709 32.2167C30.8841 32.5262 30.3595 32.7 29.8125 32.7H9.1875C8.64049 32.7 8.11589 32.5262 7.72909 32.2167C7.3423 31.9073 7.125 31.4876 7.125 31.05V19.5C7.125 19.0624 7.3423 18.6427 7.72909 18.3333C8.11589 18.0238 8.64049 17.85 9.1875 17.85H29.8125C30.3595 17.85 30.8841 18.0238 31.2709 18.3333C31.6577 18.6427 31.875 19.0624 31.875 19.5V31.05Z" fill="white"/>
</svg>
