<svg width="39" height="39" viewBox="0 0 39 39" fill="none" xmlns="http://www.w3.org/2000/svg">
<path d="M31.2027 39H7.79732C6.76273 39 5.77053 38.5789 5.03897 37.8292C4.30741 37.0796 3.89642 36.0629 3.89642 35.0028V19.0139H1.29582C1.03538 19.013 0.781215 18.932 0.566243 18.7813C0.351271 18.6306 0.185404 18.4173 0.0901292 18.1689C-0.00514522 17.9206 -0.0254362 17.6486 0.0318849 17.3883C0.0892061 17.1279 0.221498 16.8912 0.411622 16.7089L16.8994 1.06641C17.6207 0.380905 18.5682 0 19.552 0C20.5358 0 21.4833 0.380905 22.2046 1.06641L38.5884 16.7089C38.7785 16.8912 38.9108 17.1279 38.9681 17.3883C39.0254 17.6486 39.0051 17.9206 38.9099 18.1689C38.8146 18.4173 38.6487 18.6306 38.4338 18.7813C38.2188 18.932 37.9646 19.013 37.7042 19.0139H35.1036V35.0028C35.1036 36.0629 34.6926 37.0796 33.961 37.8292C33.2295 38.5789 32.2373 39 31.2027 39ZM4.61159 16.3491H5.19672C5.54158 16.3491 5.87232 16.4895 6.11617 16.7394C6.36002 16.9892 6.49702 17.3281 6.49702 17.6815V35.0028C6.49702 35.3562 6.63401 35.6951 6.87787 35.9449C7.12172 36.1948 7.45246 36.3352 7.79732 36.3352H31.2027C31.5475 36.3352 31.8783 36.1948 32.1221 35.9449C32.366 35.6951 32.503 35.3562 32.503 35.0028V17.6815C32.503 17.3281 32.64 16.9892 32.8838 16.7394C33.1277 16.4895 33.4584 16.3491 33.8033 16.3491H34.3884L20.3842 3.02505C20.1438 2.79654 19.8279 2.66958 19.5 2.66958C19.1721 2.66958 18.8562 2.79654 18.6158 3.02505L4.61159 16.3491Z" fill="white"/>
</svg>
