<svg width="39" height="39" viewBox="0 0 39 39" fill="none" xmlns="http://www.w3.org/2000/svg">
<path d="M19.5 21.45C18.8535 21.45 18.2335 21.6554 17.7764 22.0211C17.3193 22.3868 17.0625 22.8828 17.0625 23.4V29.25C17.0625 29.7672 17.3193 30.2632 17.7764 30.6289C18.2335 30.9946 18.8535 31.2 19.5 31.2C20.1465 31.2 20.7665 30.9946 21.2236 30.6289C21.6807 30.2632 21.9375 29.7672 21.9375 29.25V23.4C21.9375 22.8828 21.6807 22.3868 21.2236 22.0211C20.7665 21.6554 20.1465 21.45 19.5 21.45ZM31.6875 13.65V9.75C31.6875 7.16414 30.4035 4.68419 28.1179 2.85571C25.8323 1.02723 22.7323 0 19.5 0C16.2677 0 13.1677 1.02723 10.8821 2.85571C8.59654 4.68419 7.3125 7.16414 7.3125 9.75V13.65C5.3731 13.65 3.51314 14.2663 2.14178 15.3634C0.770422 16.4605 0 17.9485 0 19.5V33.15C0 34.7015 0.770422 36.1895 2.14178 37.2866C3.51314 38.3837 5.3731 39 7.3125 39H31.6875C33.6269 39 35.4869 38.3837 36.8582 37.2866C38.2296 36.1895 39 34.7015 39 33.15V19.5C39 17.9485 38.2296 16.4605 36.8582 15.3634C35.4869 14.2663 33.6269 13.65 31.6875 13.65ZM12.1875 9.75C12.1875 8.19848 12.9579 6.71051 14.3293 5.61343C15.7006 4.51634 17.5606 3.9 19.5 3.9C21.4394 3.9 23.2994 4.51634 24.6707 5.61343C26.0421 6.71051 26.8125 8.19848 26.8125 9.75V13.65H12.1875V9.75ZM34.125 33.15C34.125 33.6672 33.8682 34.1632 33.4111 34.5289C32.954 34.8946 32.334 35.1 31.6875 35.1H7.3125C6.66603 35.1 6.04605 34.8946 5.58893 34.5289C5.13181 34.1632 4.875 33.6672 4.875 33.15V19.5C4.875 18.9828 5.13181 18.4868 5.58893 18.1211C6.04605 17.7554 6.66603 17.55 7.3125 17.55H31.6875C32.334 17.55 32.954 17.7554 33.4111 18.1211C33.8682 18.4868 34.125 18.9828 34.125 19.5V33.15Z" fill="white"/>
</svg>
