<svg width="220" height="78" viewBox="0 0 220 78" fill="none" xmlns="http://www.w3.org/2000/svg">
<path d="M31.2191 33.6466L33.1703 55.8445C33.2738 57.022 32.9113 58.1928 32.1626 59.0995C31.4139 60.0063 30.3403 60.5746 29.1779 60.6794C28.0156 60.7842 26.8597 60.4171 25.9646 59.6586C25.0695 58.9002 24.5085 57.8126 24.405 56.6351M31.2191 33.6466L29.8033 32.7577C27.601 31.3757 24.9805 30.8447 22.4229 31.2622C19.8653 31.6796 17.5421 33.0175 15.8797 35.0302C14.9396 34.2336 13.8537 33.6323 12.6841 33.2607C11.5146 32.8891 10.2842 32.7546 9.06327 32.8647C7.84236 32.9748 6.65481 33.3275 5.56845 33.9025C4.48209 34.4776 3.51818 35.2638 2.73177 36.2162C1.33076 20.2781 12.9487 6.20857 28.6824 4.78937M31.2191 33.6466L32.4575 32.5183C34.3841 30.7639 36.8707 29.7722 39.4609 29.7253C42.0511 29.6784 44.5711 30.5795 46.5584 32.263C47.3448 31.3106 48.3087 30.5244 49.395 29.9493C50.4814 29.3743 51.669 29.0216 52.8899 28.9115C54.1108 28.8014 55.3412 28.9359 56.5107 29.3075C57.6803 29.6791 58.7662 30.2803 59.7063 31.077C58.3053 15.139 44.4162 3.37016 28.6824 4.78937M28.6824 4.78937L28.4873 2.56958" stroke="white" stroke-width="5" stroke-linecap="round" stroke-linejoin="round"/>
<path d="M15.7667 36.4C16.8472 36.4 17.8834 36.8383 18.6475 37.6185C19.4115 38.3986 19.8407 39.4567 19.8407 40.56C19.8407 41.6633 19.4115 42.7214 18.6475 43.5016C17.8834 44.2817 16.8472 44.72 15.7667 44.72C14.6861 44.72 13.6499 44.2817 12.8859 43.5016C12.1218 42.7214 11.6926 41.6633 11.6926 40.56C11.6926 39.4567 12.1218 38.3986 12.8859 37.6185C13.6499 36.8383 14.6861 36.4 15.7667 36.4ZM12.7111 78V65.52H6.59999L11.8759 49.7328C12.3852 48.0272 13.9333 46.8 15.7667 46.8C17.6 46.8 19.1481 48.0272 19.6574 49.7328L24.9333 65.52H18.8222V78H12.7111Z" fill="white"/>
<path d="M39.6 35.6572C40.7114 35.6572 41.7772 36.1033 42.5631 36.8974C43.349 37.6914 43.7905 38.7684 43.7905 39.8915C43.7905 41.0145 43.349 42.0915 42.5631 42.8855C41.7772 43.6796 40.7114 44.1257 39.6 44.1257C38.4886 44.1257 37.4227 43.6796 36.6369 42.8855C35.851 42.0915 35.4095 41.0145 35.4095 39.8915C35.4095 38.7684 35.851 37.6914 36.6369 36.8974C37.4227 36.1033 38.4886 35.6572 39.6 35.6572ZM36.4571 46.2429H42.7429C43.8542 46.2429 44.9201 46.689 45.706 47.4831C46.4918 48.2772 46.9333 49.3542 46.9333 50.4772V62.1215H43.7905V78H35.4095V62.1215H32.2667V50.4772C32.2667 49.3542 32.7082 48.2772 33.494 47.4831C34.2799 46.689 35.3458 46.2429 36.4571 46.2429Z" fill="white"/>
<path d="M77.7787 41.0971C75.6507 41.0971 73.9947 40.5851 72.8107 39.5611C71.6427 38.5371 71.0587 37.0571 71.0587 35.1211V25.4011H73.6747V35.0251C73.6747 36.3211 74.0267 37.2891 74.7307 37.9291C75.4507 38.5691 76.4667 38.8891 77.7787 38.8891C79.0747 38.8891 80.0747 38.5691 80.7787 37.9291C81.4987 37.2891 81.8587 36.3211 81.8587 35.0251V25.4011H84.4507V35.1211C84.4507 37.0571 83.8667 38.5371 82.6987 39.5611C81.5307 40.5851 79.8907 41.0971 77.7787 41.0971ZM87.3505 40.8571V25.4011H90.0385L94.9345 35.4091L99.8065 25.4011H102.495V40.8571H99.9025V29.6491L95.7265 38.1931H94.1425L89.9425 29.6491V40.8571H87.3505ZM105.515 40.8571V25.4011H113.003C114.539 25.4011 115.675 25.7611 116.411 26.4811C117.147 27.2011 117.515 28.2171 117.515 29.5291C117.515 30.3611 117.347 31.0651 117.011 31.6411C116.675 32.2011 116.227 32.6251 115.667 32.9131C116.419 33.1211 117.011 33.4971 117.443 34.0411C117.891 34.5691 118.115 35.3531 118.115 36.3931C118.115 37.8971 117.707 39.0171 116.891 39.7531C116.091 40.4891 114.907 40.8571 113.339 40.8571H105.515ZM108.131 32.0011H112.643C113.523 32.0011 114.147 31.8011 114.515 31.4011C114.899 30.9851 115.091 30.4331 115.091 29.7451C115.091 28.9451 114.899 28.3531 114.515 27.9691C114.131 27.5691 113.411 27.3691 112.355 27.3691H108.131V32.0011ZM108.131 38.9371H112.787C113.715 38.9371 114.395 38.7451 114.827 38.3611C115.259 37.9611 115.475 37.2731 115.475 36.2971C115.475 35.4971 115.259 34.9051 114.827 34.5211C114.411 34.1211 113.643 33.9211 112.523 33.9211H108.131V38.9371ZM120.655 40.8571V25.4011H127.759C129.487 25.4011 130.743 25.8491 131.527 26.7451C132.327 27.6251 132.727 28.8251 132.727 30.3451C132.727 31.4331 132.455 32.3611 131.911 33.1291C131.367 33.8971 130.583 34.4331 129.559 34.7371C129.847 34.9451 130.071 35.1691 130.231 35.4091C130.391 35.6491 130.551 35.9691 130.711 36.3691L132.655 40.8571H129.967L128.071 36.5371C127.895 36.1211 127.679 35.8251 127.423 35.6491C127.183 35.4731 126.767 35.3851 126.175 35.3851H123.271V40.8571H120.655ZM123.271 33.2731H127.063C128.007 33.2731 128.751 33.0411 129.295 32.5771C129.839 32.1131 130.111 31.3691 130.111 30.3451C130.111 28.4091 129.175 27.4411 127.303 27.4411H123.271V33.2731ZM135.304 40.8571V25.4011H146.08V27.4411H137.92V32.1211H145.192V34.1371H137.92V38.8411H146.08V40.8571H135.304ZM148.499 40.8571V25.4011H151.115V38.8411H159.035V40.8571H148.499ZM161.108 40.8571V25.4011H163.724V38.8411H171.644V40.8571H161.108ZM173.262 40.8571L179.166 25.4011H182.094L187.95 40.8571H185.262L183.726 36.8731H177.51L175.974 40.8571H173.262ZM177.918 34.8571H183.294L180.606 27.7771L177.918 34.8571ZM188.003 29.8411L189.275 25.1611H191.555L189.971 29.8411H188.003ZM198.812 41.0971C196.812 41.0971 195.204 40.8411 193.988 40.3291V38.0251C194.676 38.2811 195.412 38.4891 196.196 38.6491C196.996 38.8091 197.788 38.8891 198.572 38.8891C199.804 38.8891 200.724 38.7451 201.332 38.4571C201.956 38.1691 202.268 37.5931 202.268 36.7291C202.268 36.2011 202.14 35.7771 201.884 35.4571C201.628 35.1371 201.204 34.8651 200.612 34.6411C200.02 34.4011 199.204 34.1531 198.164 33.8971C196.5 33.4651 195.332 32.9211 194.66 32.2651C193.988 31.5931 193.652 30.6731 193.652 29.5051C193.652 28.1451 194.148 27.0811 195.14 26.3131C196.132 25.5451 197.612 25.1611 199.58 25.1611C200.476 25.1611 201.316 25.2251 202.1 25.3531C202.9 25.4811 203.524 25.6251 203.972 25.7851V28.0891C202.756 27.6251 201.412 27.3931 199.94 27.3931C198.788 27.3931 197.892 27.5451 197.252 27.8491C196.612 28.1531 196.292 28.7051 196.292 29.5051C196.292 29.9691 196.404 30.3451 196.628 30.6331C196.852 30.9211 197.236 31.1691 197.78 31.3771C198.34 31.5851 199.108 31.8171 200.084 32.0731C201.348 32.3931 202.324 32.7771 203.012 33.2251C203.716 33.6571 204.204 34.1691 204.476 34.7611C204.764 35.3371 204.908 35.9931 204.908 36.7291C204.908 38.0891 204.404 39.1611 203.396 39.9451C202.388 40.7131 200.86 41.0971 198.812 41.0971ZM71.0577 50.2671H70.3557C70.243 50.1804 70.1737 50.1154 70.1477 50.0721C70.1303 50.0201 70.1217 49.8944 70.1217 49.6951V49.3571H71.0577V47.7191C71.0577 47.4591 71.1617 47.2424 71.3697 47.0691L71.6817 46.8091C71.8897 46.6358 72.0977 46.5491 72.3057 46.5491H73.8657C73.9783 46.6358 74.0433 46.7051 74.0607 46.7571C74.0867 46.8004 74.0997 46.9218 74.0997 47.1211V47.4591H72.7087C72.544 47.4591 72.4097 47.5024 72.3057 47.5891C72.2277 47.6498 72.18 47.7018 72.1627 47.7451C72.154 47.7798 72.1497 47.8621 72.1497 47.9921V49.3571H73.6057C73.7183 49.4438 73.7833 49.5131 73.8007 49.5651C73.8267 49.6084 73.8397 49.7298 73.8397 49.9291V50.2671H72.1497V55.8571H71.0577V50.2671ZM76.3415 49.3571H79.4615C79.6695 49.3571 79.8775 49.4438 80.0855 49.6171L80.3975 49.8771C80.6055 50.0504 80.7095 50.2671 80.7095 50.5271V54.6871C80.7095 54.9471 80.6055 55.1638 80.3975 55.3371L80.0855 55.5971C79.8775 55.7705 79.6695 55.8571 79.4615 55.8571H76.3415C76.1335 55.8571 75.9255 55.7705 75.7175 55.5971L75.4055 55.3371C75.1975 55.1638 75.0935 54.9471 75.0935 54.6871V50.5271C75.0935 50.2671 75.1975 50.0504 75.4055 49.8771L75.7175 49.6171C75.9255 49.4438 76.1335 49.3571 76.3415 49.3571ZM79.6175 54.4141V50.8001C79.6175 50.6701 79.6088 50.5878 79.5915 50.5531C79.5828 50.5098 79.5395 50.4578 79.4615 50.3971C79.3835 50.3364 79.3228 50.3018 79.2795 50.2931C79.2361 50.2758 79.1365 50.2671 78.9805 50.2671H76.8225C76.6665 50.2671 76.5668 50.2758 76.5235 50.2931C76.4801 50.3018 76.4195 50.3364 76.3415 50.3971C76.2635 50.4578 76.2158 50.5098 76.1985 50.5531C76.1898 50.5878 76.1855 50.6701 76.1855 50.8001V54.4141C76.1855 54.5441 76.1898 54.6308 76.1985 54.6741C76.2158 54.7088 76.2635 54.7564 76.3415 54.8171C76.4195 54.8778 76.4801 54.9168 76.5235 54.9341C76.5668 54.9428 76.6665 54.9471 76.8225 54.9471H78.9805C79.1365 54.9471 79.2361 54.9428 79.2795 54.9341C79.3228 54.9168 79.3835 54.8778 79.4615 54.8171C79.5395 54.7564 79.5828 54.7088 79.5915 54.6741C79.6088 54.6308 79.6175 54.5441 79.6175 54.4141ZM82.2787 49.3571H82.7337C82.8897 49.3571 82.9937 49.3701 83.0457 49.3961C83.1064 49.4134 83.1887 49.4654 83.2927 49.5521C83.4314 49.6648 83.5007 49.7731 83.5007 49.8771H83.5527C83.5527 49.7731 83.648 49.6648 83.8387 49.5521C83.9947 49.4568 84.0987 49.4004 84.1507 49.3831C84.2114 49.3658 84.3197 49.3571 84.4757 49.3571H85.6717C85.8797 49.3571 86.0877 49.4438 86.2957 49.6171L86.6077 49.8771L85.8277 50.5271L85.6717 50.3971C85.5937 50.3364 85.533 50.3018 85.4897 50.2931C85.4464 50.2758 85.3467 50.2671 85.1907 50.2671H84.6317C84.4757 50.2671 84.3674 50.2758 84.3067 50.2931C84.2547 50.3104 84.1507 50.3668 83.9947 50.4621C83.8387 50.5574 83.7477 50.6268 83.7217 50.6701C83.6957 50.7134 83.6827 50.8001 83.6827 50.9301V55.8571H82.5907V50.8001C82.5907 50.6701 82.582 50.5878 82.5647 50.5531C82.556 50.5098 82.5127 50.4578 82.4347 50.3971C82.3567 50.3364 82.309 50.2888 82.2917 50.2541C82.283 50.2108 82.2787 50.1241 82.2787 49.9941V49.3571ZM95.8503 54.6871L96.6303 55.3371L96.3183 55.5971C96.1623 55.7271 96.054 55.8051 95.9933 55.8311C95.9413 55.8485 95.8373 55.8571 95.6813 55.8571H92.2103C92.0023 55.8571 91.7943 55.7705 91.5863 55.5971L91.2743 55.3371C91.0663 55.1638 90.9623 54.9471 90.9623 54.6871V50.5271C90.9623 50.2671 91.0663 50.0504 91.2743 49.8771L91.5863 49.6171C91.7943 49.4438 92.0023 49.3571 92.2103 49.3571H95.2393C95.4126 49.3571 95.6206 49.4438 95.8633 49.6171L96.1883 49.8771C96.3963 50.0331 96.5003 50.2498 96.5003 50.5271V53.1921H92.0543V54.4141C92.0543 54.5441 92.0586 54.6308 92.0673 54.6741C92.0846 54.7088 92.1323 54.7564 92.2103 54.8171C92.2883 54.8778 92.349 54.9168 92.3923 54.9341C92.4356 54.9428 92.5353 54.9471 92.6913 54.9471H95.2133C95.3693 54.9471 95.4733 54.9385 95.5253 54.9211C95.586 54.8951 95.6943 54.8171 95.8503 54.6871ZM95.4083 52.3471V50.8001C95.4083 50.6701 95.3996 50.5878 95.3823 50.5531C95.3736 50.5098 95.3303 50.4578 95.2523 50.3971C95.1743 50.3364 95.1136 50.3018 95.0703 50.2931C95.027 50.2758 94.9273 50.2671 94.7713 50.2671H92.6913C92.5353 50.2671 92.4356 50.2758 92.3923 50.2931C92.349 50.3018 92.2883 50.3364 92.2103 50.3971C92.1323 50.4578 92.0846 50.5098 92.0673 50.5531C92.0586 50.5878 92.0543 50.6701 92.0543 50.8001V52.3471H95.4083ZM100.451 54.6611L102.167 49.3571H103.246L100.984 55.8571H99.736L97.474 49.3571H98.553L100.269 54.6611C100.312 54.7911 100.334 54.8951 100.334 54.9731H100.386C100.386 54.8951 100.408 54.7911 100.451 54.6611ZM109.104 54.6871L109.884 55.3371L109.572 55.5971C109.416 55.7271 109.308 55.8051 109.247 55.8311C109.195 55.8485 109.091 55.8571 108.935 55.8571H105.464C105.256 55.8571 105.048 55.7705 104.84 55.5971L104.528 55.3371C104.32 55.1638 104.216 54.9471 104.216 54.6871V50.5271C104.216 50.2671 104.32 50.0504 104.528 49.8771L104.84 49.6171C105.048 49.4438 105.256 49.3571 105.464 49.3571H108.493C108.667 49.3571 108.875 49.4438 109.117 49.6171L109.442 49.8771C109.65 50.0331 109.754 50.2498 109.754 50.5271V53.1921H105.308V54.4141C105.308 54.5441 105.313 54.6308 105.321 54.6741C105.339 54.7088 105.386 54.7564 105.464 54.8171C105.542 54.8778 105.603 54.9168 105.646 54.9341C105.69 54.9428 105.789 54.9471 105.945 54.9471H108.467C108.623 54.9471 108.727 54.9385 108.779 54.9211C108.84 54.8951 108.948 54.8171 109.104 54.6871ZM108.662 52.3471V50.8001C108.662 50.6701 108.654 50.5878 108.636 50.5531C108.628 50.5098 108.584 50.4578 108.506 50.3971C108.428 50.3364 108.368 50.3018 108.324 50.2931C108.281 50.2758 108.181 50.2671 108.025 50.2671H105.945C105.789 50.2671 105.69 50.2758 105.646 50.2931C105.603 50.3018 105.542 50.3364 105.464 50.3971C105.386 50.4578 105.339 50.5098 105.321 50.5531C105.313 50.5878 105.308 50.6701 105.308 50.8001V52.3471H108.662ZM111.313 49.3571H111.768C111.924 49.3571 112.028 49.3701 112.08 49.3961C112.141 49.4134 112.223 49.4654 112.327 49.5521C112.466 49.6648 112.535 49.7731 112.535 49.8771H112.587C112.587 49.7731 112.682 49.6648 112.873 49.5521C113.029 49.4568 113.133 49.4004 113.185 49.3831C113.246 49.3658 113.354 49.3571 113.51 49.3571H114.706C114.914 49.3571 115.122 49.4438 115.33 49.6171L115.642 49.8771L114.862 50.5271L114.706 50.3971C114.628 50.3364 114.567 50.3018 114.524 50.2931C114.481 50.2758 114.381 50.2671 114.225 50.2671H113.666C113.51 50.2671 113.402 50.2758 113.341 50.2931C113.289 50.3104 113.185 50.3668 113.029 50.4621C112.873 50.5574 112.782 50.6268 112.756 50.6701C112.73 50.7134 112.717 50.8001 112.717 50.9301V55.8571H111.625V50.8001C111.625 50.6701 111.616 50.5878 111.599 50.5531C111.59 50.5098 111.547 50.4578 111.469 50.3971C111.391 50.3364 111.343 50.2888 111.326 50.2541C111.317 50.2108 111.313 50.1241 111.313 49.9941V49.3571ZM120.932 59.2371H117.188V58.8991C117.188 58.6998 117.197 58.5741 117.214 58.5221C117.24 58.4788 117.31 58.4138 117.422 58.3271H120.607C120.763 58.3271 120.863 58.3185 120.906 58.3011C120.95 58.2925 121.01 58.2578 121.088 58.1971C121.166 58.1365 121.21 58.0845 121.218 58.0411C121.236 58.0065 121.244 57.9241 121.244 57.7941V55.2331H121.192C121.175 55.3111 121.071 55.4325 120.88 55.5971C120.672 55.7705 120.464 55.8571 120.256 55.8571H117.994C117.786 55.8571 117.578 55.7705 117.37 55.5971L117.058 55.3371C116.85 55.1638 116.746 54.9471 116.746 54.6871V49.3571H117.838V54.4141C117.838 54.5441 117.843 54.6308 117.851 54.6741C117.869 54.7088 117.916 54.7564 117.994 54.8171C118.072 54.8778 118.133 54.9168 118.176 54.9341C118.22 54.9428 118.319 54.9471 118.475 54.9471H120.139C120.295 54.9471 120.399 54.9385 120.451 54.9211C120.512 54.9038 120.62 54.8475 120.776 54.7521C120.932 54.6568 121.023 54.5875 121.049 54.5441C121.075 54.5008 121.088 54.4141 121.088 54.2841V49.3571H122.18V58.0671C122.18 58.3271 122.076 58.5438 121.868 58.7171L121.556 58.9771C121.348 59.1505 121.14 59.2371 120.932 59.2371ZM128.487 47.5371V49.3571H130.151C130.263 49.4438 130.328 49.5131 130.346 49.5651C130.372 49.6084 130.385 49.7298 130.385 49.9291V50.2671H128.487V54.4141C128.487 54.5441 128.491 54.6308 128.5 54.6741C128.517 54.7088 128.565 54.7564 128.643 54.8171C128.721 54.8778 128.781 54.9168 128.825 54.9341C128.868 54.9428 128.968 54.9471 129.124 54.9471H130.307C130.419 55.0338 130.484 55.1031 130.502 55.1551C130.528 55.1985 130.541 55.3198 130.541 55.5191V55.8571H128.643C128.435 55.8571 128.227 55.7705 128.019 55.5971L127.707 55.3371C127.499 55.1638 127.395 54.9471 127.395 54.6871V50.2671H126.771C126.658 50.1804 126.589 50.1154 126.563 50.0721C126.545 50.0201 126.537 49.8944 126.537 49.6951V49.3571H127.395V47.5371H128.487ZM136.481 55.3371H136.429C136.429 55.4411 136.333 55.5495 136.143 55.6621C135.987 55.7575 135.878 55.8138 135.818 55.8311C135.766 55.8485 135.662 55.8571 135.506 55.8571H133.283C133.075 55.8571 132.867 55.7705 132.659 55.5971L132.347 55.3371C132.139 55.1638 132.035 54.9471 132.035 54.6871V53.1271C132.035 52.8671 132.139 52.6504 132.347 52.4771L132.659 52.2171C132.867 52.0438 133.075 51.9571 133.283 51.9571H135.61C135.774 51.9571 135.878 51.9658 135.922 51.9831C135.965 51.9918 136.021 52.0264 136.091 52.0871C136.195 52.1738 136.247 52.2604 136.247 52.3471H136.299V50.8001C136.299 50.6701 136.29 50.5878 136.273 50.5531C136.264 50.5098 136.221 50.4578 136.143 50.3971C136.065 50.3364 136.004 50.3018 135.961 50.2931C135.917 50.2758 135.818 50.2671 135.662 50.2671H133.556C133.4 50.2671 133.291 50.2801 133.231 50.3061C133.179 50.3234 133.075 50.3971 132.919 50.5271L132.139 49.8771L132.451 49.6171C132.607 49.4871 132.711 49.4134 132.763 49.3961C132.823 49.3701 132.932 49.3571 133.088 49.3571H136.143C136.351 49.3571 136.559 49.4438 136.767 49.6171L137.079 49.8771C137.287 50.0504 137.391 50.2671 137.391 50.5271V54.4141C137.391 54.5441 137.395 54.6308 137.404 54.6741C137.421 54.7088 137.469 54.7564 137.547 54.8171C137.625 54.8778 137.668 54.9298 137.677 54.9731C137.694 55.0078 137.703 55.0901 137.703 55.2201V55.8571H137.248C137.092 55.8571 136.983 55.8485 136.923 55.8311C136.871 55.8051 136.793 55.7488 136.689 55.6621C136.55 55.5495 136.481 55.4411 136.481 55.3371ZM133.127 53.4001V54.4141C133.127 54.5441 133.131 54.6308 133.14 54.6741C133.157 54.7088 133.205 54.7564 133.283 54.8171C133.361 54.8778 133.421 54.9168 133.465 54.9341C133.508 54.9428 133.608 54.9471 133.764 54.9471H135.35C135.506 54.9471 135.61 54.9385 135.662 54.9211C135.722 54.9038 135.831 54.8475 135.987 54.7521C136.143 54.6568 136.234 54.5875 136.26 54.5441C136.286 54.5008 136.299 54.4141 136.299 54.2841V53.4001C136.299 53.2701 136.29 53.1878 136.273 53.1531C136.264 53.1098 136.221 53.0578 136.143 52.9971C136.065 52.9364 136.004 52.9018 135.961 52.8931C135.917 52.8758 135.818 52.8671 135.662 52.8671H133.764C133.608 52.8671 133.508 52.8758 133.465 52.8931C133.421 52.9018 133.361 52.9364 133.283 52.9971C133.205 53.0578 133.157 53.1098 133.14 53.1531C133.131 53.1878 133.127 53.2701 133.127 53.4001ZM143.402 52.0871C143.61 52.0871 143.818 52.1738 144.026 52.3471L144.338 52.6071C144.546 52.7804 144.65 52.9971 144.65 53.2571V54.6871C144.65 54.9471 144.546 55.1638 144.338 55.3371L144.026 55.5971C143.818 55.7705 143.61 55.8571 143.402 55.8571H140.516C140.308 55.8571 140.1 55.7705 139.892 55.5971L139.58 55.3371C139.372 55.1638 139.268 54.9471 139.268 54.6871V54.1671H140.36V54.4141C140.36 54.5441 140.364 54.6308 140.373 54.6741C140.39 54.7088 140.438 54.7564 140.516 54.8171C140.594 54.8778 140.655 54.9168 140.698 54.9341C140.741 54.9428 140.841 54.9471 140.997 54.9471H142.921C143.077 54.9471 143.177 54.9428 143.22 54.9341C143.263 54.9168 143.324 54.8778 143.402 54.8171C143.48 54.7564 143.523 54.7088 143.532 54.6741C143.549 54.6308 143.558 54.5441 143.558 54.4141V53.3611C143.549 53.2918 143.497 53.2138 143.402 53.1271C143.324 53.0664 143.263 53.0318 143.22 53.0231C143.177 53.0058 143.077 52.9971 142.921 52.9971H140.646C140.438 52.9971 140.23 52.9104 140.022 52.7371L139.71 52.4771C139.502 52.3038 139.398 52.0871 139.398 51.8271V50.5271C139.398 50.2671 139.502 50.0504 139.71 49.8771L140.022 49.6171C140.23 49.4438 140.438 49.3571 140.646 49.3571H143.402C143.61 49.3571 143.818 49.4438 144.026 49.6171L144.338 49.8771C144.546 50.0504 144.65 50.2671 144.65 50.5271V51.0471H143.558V50.8001C143.558 50.6701 143.549 50.5878 143.532 50.5531C143.523 50.5098 143.48 50.4578 143.402 50.3971C143.324 50.3364 143.263 50.3018 143.22 50.2931C143.177 50.2758 143.077 50.2671 142.921 50.2671H141.127C140.971 50.2671 140.871 50.2758 140.828 50.2931C140.785 50.3018 140.724 50.3364 140.646 50.3971C140.568 50.4578 140.52 50.5098 140.503 50.5531C140.494 50.5878 140.49 50.6701 140.49 50.8001V51.5541C140.49 51.6841 140.494 51.7708 140.503 51.8141C140.52 51.8488 140.568 51.8964 140.646 51.9571C140.724 52.0178 140.785 52.0568 140.828 52.0741C140.871 52.0828 140.971 52.0871 141.127 52.0871H143.402ZM147.707 47.5371V49.3571H149.371C149.484 49.4438 149.549 49.5131 149.566 49.5651C149.592 49.6084 149.605 49.7298 149.605 49.9291V50.2671H147.707V54.4141C147.707 54.5441 147.712 54.6308 147.72 54.6741C147.738 54.7088 147.785 54.7564 147.863 54.8171C147.941 54.8778 148.002 54.9168 148.045 54.9341C148.089 54.9428 148.188 54.9471 148.344 54.9471H149.527C149.64 55.0338 149.705 55.1031 149.722 55.1551C149.748 55.1985 149.761 55.3198 149.761 55.5191V55.8571H147.863C147.655 55.8571 147.447 55.7705 147.239 55.5971L146.927 55.3371C146.719 55.1638 146.615 54.9471 146.615 54.6871V50.2671H145.991C145.879 50.1804 145.809 50.1154 145.783 50.0721C145.766 50.0201 145.757 49.8944 145.757 49.6951V49.3571H146.615V47.5371H147.707ZM156.013 54.6871L156.793 55.3371L156.481 55.5971C156.325 55.7271 156.217 55.8051 156.156 55.8311C156.104 55.8485 156 55.8571 155.844 55.8571H152.373C152.165 55.8571 151.957 55.7705 151.749 55.5971L151.437 55.3371C151.229 55.1638 151.125 54.9471 151.125 54.6871V50.5271C151.125 50.2671 151.229 50.0504 151.437 49.8771L151.749 49.6171C151.957 49.4438 152.165 49.3571 152.373 49.3571H155.402C155.576 49.3571 155.784 49.4438 156.026 49.6171L156.351 49.8771C156.559 50.0331 156.663 50.2498 156.663 50.5271V53.1921H152.217V54.4141C152.217 54.5441 152.222 54.6308 152.23 54.6741C152.248 54.7088 152.295 54.7564 152.373 54.8171C152.451 54.8778 152.512 54.9168 152.555 54.9341C152.599 54.9428 152.698 54.9471 152.854 54.9471H155.376C155.532 54.9471 155.636 54.9385 155.688 54.9211C155.749 54.8951 155.857 54.8171 156.013 54.6871ZM155.571 52.3471V50.8001C155.571 50.6701 155.563 50.5878 155.545 50.5531C155.537 50.5098 155.493 50.4578 155.415 50.3971C155.337 50.3364 155.277 50.3018 155.233 50.2931C155.19 50.2758 155.09 50.2671 154.934 50.2671H152.854C152.698 50.2671 152.599 50.2758 152.555 50.2931C152.512 50.3018 152.451 50.3364 152.373 50.3971C152.295 50.4578 152.248 50.5098 152.23 50.5531C152.222 50.5878 152.217 50.6701 152.217 50.8001V52.3471H155.571Z" fill="white"/>
</svg>
