<svg width="63" height="78" viewBox="0 0 63 78" fill="none" xmlns="http://www.w3.org/2000/svg">
<path d="M31.2191 33.6466L33.1703 55.8445C33.2738 57.022 32.9113 58.1928 32.1626 59.0995C31.4139 60.0063 30.3403 60.5746 29.1779 60.6794C28.0156 60.7842 26.8597 60.4171 25.9646 59.6586C25.0695 58.9002 24.5085 57.8126 24.405 56.6351M31.2191 33.6466L29.8033 32.7577C27.601 31.3757 24.9805 30.8447 22.4229 31.2622C19.8653 31.6796 17.5421 33.0175 15.8797 35.0302C14.9396 34.2336 13.8537 33.6323 12.6841 33.2607C11.5146 32.8891 10.2842 32.7546 9.06327 32.8647C7.84236 32.9748 6.65481 33.3275 5.56845 33.9025C4.48209 34.4776 3.51818 35.2638 2.73177 36.2162C1.33076 20.2781 12.9487 6.20857 28.6824 4.78937M31.2191 33.6466L32.4575 32.5183C34.3841 30.7639 36.8707 29.7722 39.4609 29.7253C42.0511 29.6784 44.5711 30.5795 46.5584 32.263C47.3448 31.3106 48.3087 30.5244 49.395 29.9493C50.4814 29.3743 51.669 29.0216 52.8899 28.9115C54.1108 28.8014 55.3412 28.9359 56.5107 29.3075C57.6803 29.6791 58.7662 30.2803 59.7063 31.077C58.3053 15.139 44.4162 3.37016 28.6824 4.78937M28.6824 4.78937L28.4873 2.56958" stroke="white" stroke-width="5" stroke-linecap="round" stroke-linejoin="round"/>
<path d="M15.7667 36.4C16.8472 36.4 17.8834 36.8383 18.6475 37.6185C19.4115 38.3986 19.8407 39.4567 19.8407 40.56C19.8407 41.6633 19.4115 42.7214 18.6475 43.5016C17.8834 44.2817 16.8472 44.72 15.7667 44.72C14.6861 44.72 13.6499 44.2817 12.8859 43.5016C12.1218 42.7214 11.6926 41.6633 11.6926 40.56C11.6926 39.4567 12.1218 38.3986 12.8859 37.6185C13.6499 36.8383 14.6861 36.4 15.7667 36.4ZM12.7111 78V65.52H6.59999L11.8759 49.7328C12.3852 48.0272 13.9333 46.8 15.7667 46.8C17.6 46.8 19.1481 48.0272 19.6574 49.7328L24.9333 65.52H18.8222V78H12.7111Z" fill="white"/>
<path d="M39.6 35.6572C40.7114 35.6572 41.7772 36.1033 42.5631 36.8974C43.349 37.6914 43.7905 38.7684 43.7905 39.8915C43.7905 41.0145 43.349 42.0915 42.5631 42.8855C41.7772 43.6796 40.7114 44.1257 39.6 44.1257C38.4886 44.1257 37.4227 43.6796 36.6369 42.8855C35.851 42.0915 35.4095 41.0145 35.4095 39.8915C35.4095 38.7684 35.851 37.6914 36.6369 36.8974C37.4227 36.1033 38.4886 35.6572 39.6 35.6572ZM36.4571 46.2429H42.7429C43.8542 46.2429 44.9201 46.689 45.706 47.4831C46.4918 48.2772 46.9333 49.3542 46.9333 50.4772V62.1215H43.7905V78H35.4095V62.1215H32.2667V50.4772C32.2667 49.3542 32.7082 48.2772 33.494 47.4831C34.2799 46.689 35.3458 46.2429 36.4571 46.2429Z" fill="white"/>
</svg>
