<svg width="39" height="39" viewBox="0 0 39 39" fill="none" xmlns="http://www.w3.org/2000/svg">
<path d="M37.7812 0H1.21875C0.895517 0 0.585524 0.186769 0.356964 0.51922C0.128404 0.851671 0 1.30257 0 1.77273L0 37.2273C0 37.6974 0.128404 38.1483 0.356964 38.4808C0.585524 38.8132 0.895517 39 1.21875 39H37.7812C38.1045 39 38.4145 38.8132 38.643 38.4808C38.8716 38.1483 39 37.6974 39 37.2273V1.77273C39 1.30257 38.8716 0.851671 38.643 0.51922C38.4145 0.186769 38.1045 0 37.7812 0ZM36.5625 35.4545H2.4375V3.54545H36.5625V35.4545Z" fill="white"/>
<path d="M6.09375 31.9091H15.8438C16.167 31.9091 16.477 31.7223 16.7055 31.3899C16.9341 31.0574 17.0625 30.6065 17.0625 30.1364V26.5909C17.0625 24.2401 16.4205 21.9856 15.2777 20.3234C14.1349 18.6611 12.5849 17.7273 10.9688 17.7273C9.35259 17.7273 7.80262 18.6611 6.65982 20.3234C5.51702 21.9856 4.875 24.2401 4.875 26.5909V30.1364C4.875 30.6065 5.0034 31.0574 5.23196 31.3899C5.46052 31.7223 5.77052 31.9091 6.09375 31.9091ZM7.3125 26.5909C7.3125 25.1804 7.69771 23.8277 8.38339 22.8304C9.06907 21.833 9.99905 21.2727 10.9688 21.2727C11.9384 21.2727 12.8684 21.833 13.5541 22.8304C14.2398 23.8277 14.625 25.1804 14.625 26.5909V28.3636H7.3125V26.5909Z" fill="white"/>
<path d="M14.625 12.4091C14.625 11.3573 14.4106 10.329 14.0088 9.45447C13.6071 8.57989 13.036 7.89825 12.3679 7.49573C11.6998 7.09321 10.9647 6.98789 10.2555 7.19309C9.54621 7.3983 8.89473 7.9048 8.38339 8.64857C7.87206 9.39233 7.52383 10.3399 7.38276 11.3716C7.24168 12.4032 7.31408 13.4725 7.59082 14.4443C7.86755 15.416 8.33618 16.2466 8.93745 16.831C9.53871 17.4154 10.2456 17.7273 10.9688 17.7273C11.9384 17.7273 12.8684 17.167 13.5541 16.1696C14.2398 15.1723 14.625 13.8196 14.625 12.4091ZM10.9688 14.1818C10.7277 14.1818 10.4921 14.0778 10.2916 13.8831C10.0912 13.6883 9.93502 13.4114 9.84277 13.0875C9.75053 12.7636 9.72639 12.4071 9.77342 12.0632C9.82045 11.7194 9.93652 11.4035 10.107 11.1556C10.2774 10.9077 10.4946 10.7388 10.731 10.6704C10.9674 10.602 11.2124 10.6371 11.4351 10.7713C11.6578 10.9055 11.8482 11.1327 11.9821 11.4242C12.116 11.7157 12.1875 12.0585 12.1875 12.4091C12.1875 12.8792 12.0591 13.3301 11.8305 13.6626C11.602 13.995 11.292 14.1818 10.9688 14.1818Z" fill="white"/>
<path d="M34.125 28.3636H21.9375V31.9091H34.125V28.3636Z" fill="white"/>
<path d="M34.125 21.2727H21.9375V24.8182H34.125V21.2727Z" fill="white"/>
<path d="M34.125 14.1818H21.9375V17.7273H34.125V14.1818Z" fill="white"/>
</svg>
